<?xml version="1.0" encoding="iso-8859-1"?>
<!-- Generator: Adobe Illustrator 19.0.0, SVG Export Plug-In . SVG Version: 6.00 Build 0)  -->
<svg version="1.1" id="Layer_1" xmlns="http://www.w3.org/2000/svg" xmlns:xlink="http://www.w3.org/1999/xlink" x="0px" y="0px"
	 viewBox="0 0 512 512" style="enable-background:new 0 0 512 512;" xml:space="preserve">
<path style="fill:#9CDD05;" d="M128.869,359.337c15.868-20.559,35.517-38.05,57.906-51.421c9.306-5.558,19.079-10.409,29.253-14.465
	c9.987-3.985,20.362-7.204,31.043-9.598c-25.566-23.572-59.078-36.821-94.303-36.821c-76.757,0-139.204,62.448-139.204,139.205
	c0,14.856,12.044,26.9,26.9,26.9h58.467c3.476-9.302,7.597-18.287,12.322-26.9C116.429,376.797,122.329,367.809,128.869,359.337z"/>
<g>
	<path style="fill:#EFC27B;" d="M200.458,177.579c-5.247-7.378-9.623-15.408-12.986-23.95c-5.02-12.74-7.806-26.595-7.806-41.096
		s2.789-28.356,7.806-41.098c3.364-8.544,7.74-16.572,12.987-23.95c-13.373-9.829-29.863-15.654-47.694-15.654
		c-44.498,0-80.701,36.202-80.701,80.703c0,44.498,36.202,80.699,80.701,80.699C170.595,193.232,187.087,187.409,200.458,177.579z"
		/>
	<path style="fill:#EFC27B;" d="M179.666,112.533c0,14.501,2.787,28.355,7.806,41.096c3.363,8.542,7.738,16.572,12.986,23.95
		c20.412,28.706,53.915,47.486,91.742,47.486c62.052,0,112.533-50.483,112.533-112.533S354.252,0,292.201,0
		c-37.827,0-71.327,18.78-91.741,47.484c-5.247,7.378-9.623,15.408-12.987,23.95C182.455,84.176,179.666,98.032,179.666,112.533z"/>
</g>
<path style="fill:#A4E276;" d="M498.436,485.1c0-113.718-92.517-206.234-206.235-206.234c-15.5,0-30.6,1.731-45.131,4.987
	c-10.679,2.394-21.054,5.613-31.043,9.598c-10.174,4.058-19.946,8.908-29.253,14.465c-22.388,13.371-42.038,30.862-57.906,51.421
	c-6.539,8.472-12.44,17.46-17.618,26.9c-4.725,8.613-8.848,17.598-12.322,26.9c-8.375,22.415-12.964,46.661-12.964,71.962
	c0,14.856,12.044,26.9,26.9,26.9h358.67C486.392,512,498.436,499.956,498.436,485.1z"/>
<path style="fill:#ECB45C;" d="M200.46,47.484c-5.247,7.378-9.623,15.408-12.987,23.95c-5.018,12.74-7.806,26.595-7.806,41.098
	c0,14.501,2.787,28.355,7.806,41.096c3.363,8.542,7.738,16.572,12.986,23.95c20.412,28.706,53.914,47.486,91.742,47.486V0
	C254.373,0,220.874,18.78,200.46,47.484z"/>
<path style="fill:#64C37D;" d="M247.069,283.853c-10.679,2.394-21.054,5.613-31.043,9.598c-10.174,4.058-19.946,8.908-29.253,14.465
	c-22.388,13.371-42.038,30.862-57.906,51.421c-6.539,8.472-12.44,17.46-17.618,26.9c-4.725,8.613-8.848,17.598-12.322,26.9
	c-8.375,22.417-12.964,46.661-12.964,71.962c0,14.856,12.044,26.9,26.9,26.9h179.335V278.866
	C276.701,278.866,261.602,280.597,247.069,283.853z"/>
<path style="fill:#ECB45C;" d="M72.065,112.533c0,44.436,36.102,80.595,80.518,80.695V31.834
	C108.167,31.934,72.065,68.094,72.065,112.533z"/>
<g>
</g>
<g>
</g>
<g>
</g>
<g>
</g>
<g>
</g>
<g>
</g>
<g>
</g>
<g>
</g>
<g>
</g>
<g>
</g>
<g>
</g>
<g>
</g>
<g>
</g>
<g>
</g>
<g>
</g>
</svg>
